<?xml version="1.0" encoding="utf-8"?>
<svg fill="none" height="107" viewBox="4 0 1440 107" width="1440" xmlns="http://www.w3.org/2000/svg">
<g filter="url(#filter0_dd_205_3562)">
<path d="M1444 87C1444 93.6274 1438.63 99 1432 99C1425.48 99 1420.17 93.7939 1420 87.3096L1420 87C1420 93.6274 1414.63 99 1408 99C1401.48 99 1396.17 93.7939 1396 87.3096L1396 87C1396 93.6274 1390.63 99 1384 99C1377.48 99 1372.17 93.7939 1372 87.3096L1372 87C1372 93.6274 1366.63 99 1360 99C1353.48 99 1348.17 93.7939 1348 87.3096L1348 87C1348 93.6274 1342.63 99 1336 99C1329.48 99 1324.17 93.7939 1324 87.3096L1324 87C1324 93.6274 1318.63 99 1312 99C1305.48 99 1300.17 93.7939 1300 87.3096L1300 87C1300 93.6274 1294.63 99 1288 99C1281.48 99 1276.17 93.7939 1276 87.3096L1276 87C1276 93.6274 1270.63 99 1264 99C1257.48 99 1252.17 93.7939 1252 87.3096L1252 87C1252 93.6274 1246.63 99 1240 99C1233.48 99 1228.17 93.7939 1228 87.3096L1228 87C1228 93.6274 1222.63 99 1216 99C1209.48 99 1204.17 93.7939 1204 87.3096L1204 87C1204 93.6274 1198.63 99 1192 99C1185.48 99 1180.17 93.7939 1180 87.3096L1180 87C1180 93.6274 1174.63 99 1168 99C1161.48 99 1156.17 93.7939 1156 87.3096L1156 87C1156 93.6274 1150.63 99 1144 99C1137.48 99 1132.17 93.7939 1132 87.3096L1132 87C1132 93.6274 1126.63 99 1120 99C1113.48 99 1108.17 93.7939 1108 87.3096L1108 87C1108 93.6274 1102.63 99 1096 99C1089.48 99 1084.17 93.7939 1084 87.3096L1084 87C1084 93.6274 1078.63 99 1072 99C1065.48 99 1060.17 93.7939 1060 87.3096L1060 87C1060 93.6274 1054.63 99 1048 99C1041.48 99 1036.17 93.7939 1036 87.3096L1036 87C1036 93.6274 1030.63 99 1024 99C1017.48 99 1012.17 93.7939 1012 87.3096L1012 87C1012 93.6274 1006.63 99 1000 99C993.476 99 988.168 93.7939 988.004 87.3096L988 87C988 93.6274 982.627 99 976 99C969.476 99 964.168 93.7939 964.004 87.3096L964 87C964 93.6274 958.627 99 952 99C945.476 99 940.168 93.7939 940.004 87.3096L940 87C940 93.6274 934.627 99 928 99C921.476 99 916.168 93.7939 916.004 87.3096L916 87C916 93.6274 910.627 99 904 99C897.476 99 892.168 93.7939 892.004 87.3096L892 87C892 93.6274 886.627 99 880 99C873.476 99 868.168 93.7939 868.004 87.3096L868 87C868 93.6274 862.627 99 856 99C849.476 99 844.168 93.7939 844.004 87.3096L844 87C844 93.6274 838.627 99 832 99C825.476 99 820.168 93.7939 820.004 87.3096L820 87C820 93.6274 814.627 99 808 99C801.476 99 796.168 93.7939 796.004 87.3096L796 87C796 93.6274 790.627 99 784 99C777.476 99 772.168 93.7939 772.004 87.3096L772 87C772 93.6274 766.627 99 760 99C753.476 99 748.168 93.7939 748.004 87.3096L748 87C748 93.6274 742.627 99 736 99C729.476 99 724.168 93.7939 724.004 87.3096L724 87C724 93.6274 718.627 99 712 99C705.476 99 700.168 93.7939 700.004 87.3096L700 87C700 93.6274 694.627 99 688 99C681.476 99 676.168 93.7939 676.004 87.3096L676 87C676 93.6274 670.627 99 664 99C657.476 99 652.168 93.7939 652.004 87.3096L652 87C652 93.6274 646.627 99 640 99C633.476 99 628.168 93.7939 628.004 87.3096L628 87C628 93.6274 622.627 99 616 99C609.476 99 604.168 93.7939 604.004 87.3096L604 87C604 93.6274 598.627 99 592 99C585.476 99 580.168 93.7939 580.004 87.3096L580 87C580 93.6274 574.627 99 568 99C561.476 99 556.168 93.7939 556.004 87.3096L556 87C556 93.6274 550.627 99 544 99C537.476 99 532.168 93.7939 532.004 87.3096L532 87C532 93.6274 526.627 99 520 99C513.476 99 508.168 93.7939 508.004 87.3096L508 87C508 93.6274 502.627 99 496 99C489.476 99 484.168 93.7939 484.004 87.3096L484 87C484 93.6274 478.627 99 472 99C465.476 99 460.168 93.7939 460.004 87.3096L460 87C460 93.6274 454.627 99 448 99C441.476 99 436.168 93.7939 436.004 87.3096L436 87C436 93.6274 430.627 99 424 99C417.476 99 412.168 93.7939 412.004 87.3096L412 87C412 93.6274 406.627 99 400 99C393.476 99 388.168 93.7939 388.004 87.3096L388 87C388 93.6274 382.627 99 376 99C369.476 99 364.168 93.7939 364.004 87.3096L364 87C364 93.6274 358.627 99 352 99C345.476 99 340.168 93.7939 340.004 87.3096L340 87C340 93.6274 334.627 99 328 99C321.476 99 316.168 93.7939 316.004 87.3096L316 87C316 93.6274 310.627 99 304 99C297.476 99 292.168 93.7939 292.004 87.3096L292 87C292 93.6274 286.627 99 280 99C273.476 99 268.168 93.7939 268.004 87.3096L268 87C268 93.6274 262.627 99 256 99C249.476 99 244.168 93.7939 244.004 87.3096L244 87C244 93.6274 238.627 99 232 99C225.476 99 220.168 93.7939 220.004 87.3096L220 87C220 93.6274 214.627 99 208 99C201.476 99 196.168 93.7939 196.004 87.3096L196 87C196 93.6274 190.627 99 184 99C177.476 99 172.168 93.7939 172.004 87.3096L172 87C172 93.6274 166.627 99 160 99C153.476 99 148.168 93.7939 148.004 87.3096L148 87C148 93.6274 142.627 99 136 99C129.476 99 124.168 93.7939 124.004 87.3096L124 87C124 93.6274 118.627 99 112 99C105.476 99 100.168 93.7939 100.004 87.3096L100 87C100 93.6274 94.6274 99 88 99C81.4761 99 76.1681 93.7939 76.0039 87.3096L76 87C76 93.6274 70.6274 99 64 99C57.4761 99 52.1681 93.7939 52.0039 87.3096L52 87C52 93.6274 46.6274 99 40 99C33.4761 99 28.1681 93.7939 28.0039 87.3096L28 87C28 93.6274 22.6274 99 16 99C9.37258 99 4 93.6274 4 87V0H1444V87Z" fill="#F5EAE7"/>
</g>
<rect fill="#EED7D1" height="46.5882" rx="12" width="24" x="4" y="52.4117"/>
<rect fill="#EED7D1" height="46.5882" rx="12" width="24" x="100" y="52.4117"/>
<rect fill="#EED7D1" height="46.5882" rx="12" width="24" x="196" y="52.4117"/>
<rect fill="#EED7D1" height="46.5882" rx="12" width="24" x="292" y="52.4117"/>
<rect fill="#EED7D1" height="46.5882" rx="12" width="24" x="388" y="52.4117"/>
<rect fill="#EED7D1" height="46.5882" rx="12" width="24" x="484" y="52.4117"/>
<rect fill="#EED7D1" height="46.5882" rx="12" width="24" x="580" y="52.4117"/>
<rect fill="#EED7D1" height="46.5882" rx="12" width="24" x="676" y="52.4117"/>
<rect fill="#EED7D1" height="46.5882" rx="12" width="24" x="772" y="52.4117"/>
<rect fill="#EED7D1" height="46.5882" rx="12" width="24" x="868" y="52.4117"/>
<rect fill="#EED7D1" height="46.5882" rx="12" width="24" x="964" y="52.4117"/>
<rect fill="#EED7D1" height="46.5882" rx="12" width="24" x="1060" y="52.4117"/>
<rect fill="#EED7D1" height="46.5882" rx="12" width="24" x="1156" y="52.4117"/>
<rect fill="#EED7D1" height="46.5882" rx="12" width="24" x="1252" y="52.4117"/>
<rect fill="#EED7D1" height="46.5882" rx="12" width="24" x="1348" y="52.4117"/>
<rect fill="#EED7D1" height="46.5882" rx="12" width="24" x="52" y="52.4117"/>
<rect fill="#EED7D1" height="46.5882" rx="12" width="24" x="148" y="52.4117"/>
<rect fill="#EED7D1" height="46.5882" rx="12" width="24" x="244" y="52.4117"/>
<rect fill="#EED7D1" height="46.5882" rx="12" width="24" x="340" y="52.4117"/>
<rect fill="#EED7D1" height="46.5882" rx="12" width="24" x="436" y="52.4117"/>
<rect fill="#EED7D1" height="46.5882" rx="12" width="24" x="532" y="52.4117"/>
<rect fill="#EED7D1" height="46.5882" rx="12" width="24" x="628" y="52.4117"/>
<rect fill="#EED7D1" height="46.5882" rx="12" width="24" x="724" y="52.4117"/>
<rect fill="#EED7D1" height="46.5882" rx="12" width="24" x="820" y="52.4117"/>
<rect fill="#EED7D1" height="46.5882" rx="12" width="24" x="916" y="52.4117"/>
<rect fill="#EED7D1" height="46.5882" rx="12" width="24" x="1012" y="52.4117"/>
<rect fill="#EED7D1" height="46.5882" rx="12" width="24" x="1108" y="52.4117"/>
<rect fill="#EED7D1" height="46.5882" rx="12" width="24" x="1204" y="52.4117"/>
<rect fill="#EED7D1" height="46.5882" rx="12" width="24" x="1300" y="52.4117"/>
<rect fill="#EED7D1" height="46.5882" rx="12" width="24" x="1396" y="52.4117"/>
<path d="M4 0V84.821H28V0H4Z" fill="#EED7D1"/>
<path d="M52 0V84.821H76V0H52Z" fill="#F5EAE7"/>
<path d="M100 0V84.821H124V0H100Z" fill="#F5EAE7"/>
<path d="M148 0V84.821H172V0H148Z" fill="#F5EAE7"/>
<path d="M196 0V84.821H220V0H196Z" fill="#F5EAE7"/>
<path d="M244 0V84.821H268V0H244Z" fill="#F5EAE7"/>
<path d="M292 0V84.821H316V0H292Z" fill="#F5EAE7"/>
<path d="M340 0V84.821H364V0H340Z" fill="#F5EAE7"/>
<path d="M388 0V84.821H412V0H388Z" fill="#F5EAE7"/>
<path d="M436 0V84.821H460V0H436Z" fill="#F5EAE7"/>
<path d="M484 0V84.821H508V0H484Z" fill="#F5EAE7"/>
<path d="M532 0V84.821H556V0H532Z" fill="#F5EAE7"/>
<path d="M580 0V84.821H604V0H580Z" fill="#F5EAE7"/>
<path d="M628 0V84.821H652V0H628Z" fill="#F5EAE7"/>
<path d="M676 0V84.821H700V0H676Z" fill="#F5EAE7"/>
<path d="M772 0V84.821H796V0H772Z" fill="#F5EAE7"/>
<path d="M820 0V84.821H844V0H820Z" fill="#F5EAE7"/>
<path d="M868 0V84.821H892V0H868Z" fill="#F5EAE7"/>
<path d="M916 0V84.821H940V0H916Z" fill="#F5EAE7"/>
<path d="M964 0V84.821H988V0H964Z" fill="#F5EAE7"/>
<path d="M1012 0V84.821H1036V0H1012Z" fill="#F5EAE7"/>
<path d="M1060 0V84.821H1084V0H1060Z" fill="#F5EAE7"/>
<path d="M1108 0V84.821H1132V0H1108Z" fill="#F5EAE7"/>
<path d="M1156 0V84.821H1180V0H1156Z" fill="#F5EAE7"/>
<path d="M1204 0V84.821H1228V0H1204Z" fill="#F5EAE7"/>
<path d="M1252 0V84.821H1276V0H1252Z" fill="#F5EAE7"/>
<path d="M1300 0V84.821H1324V0H1300Z" fill="#F5EAE7"/>
<path d="M1348 0V84.821H1372V0H1348Z" fill="#F5EAE7"/>
<path d="M1396 0V84.821H1420V0H1396Z" fill="#F5EAE7"/>
<path d="M28 84.821H52V0H28V84.821Z" fill="#F5EAE7"/>
<path d="M724 84.821H748V0H724V84.821Z" fill="#EED7D1"/>
<path clip-rule="evenodd" d="M52 0H76V84.821H52V0ZM124 84.821H100V0H124V84.821ZM148 84.821H172V0H148V84.821ZM220 84.821H196V0H220V84.821ZM244 84.821H268V0H244V84.821ZM316 84.821H292V0H316V84.821ZM340 84.821H364V0H340V84.821ZM412 84.821H388V0H412V84.821ZM436 84.821H460V0H436V84.821ZM508 84.821H484V0H508V84.821ZM532 84.821H556V0H532V84.821ZM604 84.821H580V0H604V84.821ZM628 84.821H652V0H628V84.821ZM700 84.821H676V0H700V84.821ZM772 84.821H796V0H772V84.821ZM844 84.821H820V0H844V84.821ZM868 84.821H892V0H868V84.821ZM940 84.821H916V0H940V84.821ZM964 84.821H988V0H964V84.821ZM1036 84.821H1012V0H1036V84.821ZM1060 84.821H1084V0H1060V84.821ZM1132 84.821H1108V0H1132V84.821ZM1156 84.821H1180V0H1156V84.821ZM1228 84.821H1204V0H1228V84.821ZM1252 84.821H1276V0H1252V84.821ZM1324 84.821H1300V0H1324V84.821ZM1348 84.821H1372V0H1348V84.821ZM1420 84.821H1396V0H1420V84.821Z" fill="#EED7D1" fill-rule="evenodd"/>
<path d="M1444 84.821V0H1420V84.821H1444Z" fill="#F5EAE7"/>
<path d="M1372 84.821H1396V0H1372V84.821Z" fill="#F5EAE7"/>
<path d="M1324 84.821H1348V0H1324V84.821Z" fill="#F5EAE7"/>
<path d="M1276 84.821H1300V0H1276V84.821Z" fill="#F5EAE7"/>
<path d="M1228 84.821H1252V0H1228V84.821Z" fill="#F5EAE7"/>
<path d="M1180 84.821H1204V0H1180V84.821Z" fill="#F5EAE7"/>
<path d="M1132 84.821H1156V0H1132V84.821Z" fill="#F5EAE7"/>
<path d="M1084 84.821H1108V0H1084V84.821Z" fill="#F5EAE7"/>
<path d="M1036 84.821H1060V0H1036V84.821Z" fill="#F5EAE7"/>
<path d="M988 84.821H1012V0H988V84.821Z" fill="#F5EAE7"/>
<path d="M940 84.821H964V0H940V84.821Z" fill="#F5EAE7"/>
<path d="M892 84.821H916V0H892V84.821Z" fill="#F5EAE7"/>
<path d="M844 84.821H868V0H844V84.821Z" fill="#F5EAE7"/>
<path d="M796 84.821H820V0H796V84.821Z" fill="#F5EAE7"/>
<path d="M748 84.821H772V0H748V84.821Z" fill="#F5EAE7"/>
<path d="M700 84.821H724V0H700V84.821Z" fill="#F5EAE7"/>
<path d="M652 84.821H676V0H652V84.821Z" fill="#F5EAE7"/>
<path d="M604 84.821H628V0H604V84.821Z" fill="#F5EAE7"/>
<path d="M556 84.821H580V0H556V84.821Z" fill="#F5EAE7"/>
<path d="M508 84.821H532V0H508V84.821Z" fill="#F5EAE7"/>
<path d="M460 84.821H484V0H460V84.821Z" fill="#F5EAE7"/>
<path d="M412 84.821H436V0H412V84.821Z" fill="#F5EAE7"/>
<path d="M364 84.821H388V0H364V84.821Z" fill="#F5EAE7"/>
<path d="M316 84.821H340V0H316V84.821Z" fill="#F5EAE7"/>
<path d="M268 84.821H292V0H268V84.821Z" fill="#F5EAE7"/>
<path d="M220 84.821H244V0H220V84.821Z" fill="#F5EAE7"/>
<path d="M172 84.821H196V0H172V84.821Z" fill="#F5EAE7"/>
<path d="M124 84.821H148V0H124V84.821Z" fill="#F5EAE7"/>
<path d="M76 84.821H100V0H76V84.821Z" fill="#F5EAE7"/>
<rect fill="url(#paint0_linear_205_3562)" height="99" width="1440" x="4"/>
<defs>
<filter color-interpolation-filters="sRGB" filterUnits="userSpaceOnUse" height="107" id="filter0_dd_205_3562" width="1448" x="0" y="0">
<feFlood flood-opacity="0" result="BackgroundImageFix"/>
<feColorMatrix in="SourceAlpha" result="hardAlpha" type="matrix" values="0 0 0 0 0 0 0 0 0 0 0 0 0 0 0 0 0 0 127 0"/>
<feOffset dy="4"/>
<feGaussianBlur stdDeviation="2"/>
<feComposite in2="hardAlpha" operator="out"/>
<feColorMatrix type="matrix" values="0 0 0 0 0 0 0 0 0 0 0 0 0 0 0 0 0 0 0.25 0"/>
<feBlend in2="BackgroundImageFix" mode="normal" result="effect1_dropShadow_205_3562"/>
<feColorMatrix in="SourceAlpha" result="hardAlpha" type="matrix" values="0 0 0 0 0 0 0 0 0 0 0 0 0 0 0 0 0 0 127 0"/>
<feOffset dy="4"/>
<feComposite in2="hardAlpha" operator="out"/>
<feColorMatrix type="matrix" values="0 0 0 0 0.768269 0 0 0 0 0.643478 0 0 0 0 0.609444 0 0 0 1 0"/>
<feBlend in2="effect1_dropShadow_205_3562" mode="normal" result="effect2_dropShadow_205_3562"/>
<feBlend in="SourceGraphic" in2="effect2_dropShadow_205_3562" mode="normal" result="shape"/>
</filter>
<linearGradient gradientUnits="userSpaceOnUse" id="paint0_linear_205_3562" x1="677.663" x2="677.663" y1="0" y2="99">
<stop offset="0.572115" stop-color="#F5EAE7"/>
<stop offset="1" stop-color="white" stop-opacity="0"/>
</linearGradient>
</defs>
</svg>