<svg width="92" height="40" viewBox="0 0 92 40" fill="none" xmlns="http://www.w3.org/2000/svg">
<g filter="url(#filter0_d_151_374)">
<path d="M82.1193 37L9.8807 37C9.8807 31.8013 5.45765 27.5881 -4.30881e-07 27.5881L-1.46998e-07 9.41186C5.45766 9.41186 9.8807 5.19869 9.8807 1.5432e-07L82.1193 1.28257e-06C82.1193 5.19869 86.5423 9.41186 92 9.41186L92 27.5881C86.5423 27.5881 82.1193 31.8013 82.1193 37Z" fill="#A75069"/>
<path d="M26.5267 12.928L26.2707 14.64L22.2707 14.64L22.2707 17.52L25.7587 17.52L25.7587 19.216L22.2707 19.216L22.2707 22.272L26.5587 22.272L26.5587 24L19.9187 24L19.9187 12.928L26.5267 12.928ZM24.5587 8.88L25.4227 10.608L21.6787 11.968L21.1027 10.8L24.5587 8.88ZM33.1302 23.6C32.8209 23.8133 32.4689 23.9733 32.0742 24.08C31.6902 24.1973 31.3062 24.256 30.9222 24.256C30.0476 24.2453 29.3862 23.9947 28.9382 23.504C28.4902 23.0133 28.2662 22.2933 28.2662 21.344L28.2662 17.12L27.0022 17.12L27.0022 15.52L28.2662 15.52L28.2662 13.664L30.5382 13.392L30.5382 15.52L32.4902 15.52L32.2662 17.12L30.5382 17.12L30.5382 21.296C30.5382 21.7013 30.6076 21.9947 30.7462 22.176C30.8849 22.3573 31.0982 22.448 31.3862 22.448C31.6742 22.448 31.9942 22.352 32.3462 22.16L33.1302 23.6ZM40.4445 21.648C40.4445 21.9787 40.4925 22.224 40.5885 22.384C40.6845 22.5333 40.8445 22.6453 41.0685 22.72L40.5885 24.224C40.0871 24.1813 39.6765 24.064 39.3565 23.872C39.0471 23.68 38.8071 23.3813 38.6365 22.976C38.0818 23.8293 37.2338 24.256 36.0925 24.256C35.2498 24.256 34.5778 24.016 34.0765 23.536C33.5858 23.0453 33.3405 22.4107 33.3405 21.632C33.3405 20.704 33.6765 19.9947 34.3485 19.504C35.0205 19.0133 35.9858 18.768 37.2445 18.768L38.2205 18.768L38.2205 18.352C38.2205 17.8293 38.1031 17.4667 37.8685 17.264C37.6338 17.0613 37.2445 16.96 36.7005 16.96C36.1031 16.96 35.3565 17.1093 34.4605 17.408L33.9485 15.888C35.0045 15.472 36.0498 15.264 37.0845 15.264C38.2365 15.264 39.0845 15.5147 39.6285 16.016C40.1725 16.5067 40.4445 17.2427 40.4445 18.224L40.4445 21.648ZM36.7165 22.624C37.3565 22.624 37.8578 22.3093 38.2205 21.68L38.2205 20.064L37.4685 20.064C36.2418 20.064 35.6285 20.5227 35.6285 21.44C35.6285 21.8133 35.7191 22.1067 35.9005 22.32C36.0925 22.5227 36.3645 22.624 36.7165 22.624ZM47.2905 15.264C48.3571 15.264 49.1465 15.6587 49.6585 16.448C50.1811 17.2267 50.4425 18.3253 50.4425 19.744C50.4425 20.608 50.3091 21.3813 50.0425 22.064C49.7758 22.7467 49.3865 23.2853 48.8745 23.68C48.3731 24.064 47.7758 24.256 47.0825 24.256C46.2185 24.256 45.5198 23.952 44.9865 23.344L44.9865 27.264L42.7145 27.52L42.7145 15.52L44.7145 15.52L44.8265 16.512C45.1465 16.096 45.5198 15.7867 45.9465 15.584C46.3838 15.3707 46.8318 15.264 47.2905 15.264ZM46.4105 22.56C47.5198 22.56 48.0745 21.6267 48.0745 19.76C48.0745 18.736 47.9518 18.0107 47.7065 17.584C47.4611 17.1573 47.0878 16.944 46.5865 16.944C46.2665 16.944 45.9678 17.0453 45.6905 17.248C45.4238 17.44 45.1891 17.7013 44.9865 18.032L44.9865 21.728C45.3491 22.2827 45.8238 22.56 46.4105 22.56ZM59.4137 19.568C59.4137 19.6747 59.3977 19.968 59.3657 20.448L54.0697 20.448C54.1444 21.216 54.3524 21.76 54.6937 22.08C55.0351 22.4 55.4991 22.56 56.0857 22.56C56.4484 22.56 56.7897 22.5013 57.1097 22.384C57.4297 22.2667 57.7764 22.08 58.1497 21.824L59.0937 23.104C58.1444 23.872 57.0724 24.256 55.8777 24.256C54.5444 24.256 53.5204 23.856 52.8057 23.056C52.0911 22.256 51.7337 21.1733 51.7337 19.808C51.7337 18.944 51.8831 18.1707 52.1817 17.488C52.4911 16.7947 52.9337 16.2507 53.5097 15.856C54.0964 15.4613 54.7897 15.264 55.5897 15.264C56.7951 15.264 57.7337 15.6427 58.4057 16.4C59.0777 17.1573 59.4137 18.2133 59.4137 19.568ZM57.1577 18.928C57.1577 17.52 56.6511 16.816 55.6377 16.816C55.1684 16.816 54.8004 16.992 54.5337 17.344C54.2777 17.6853 54.1231 18.2453 54.0697 19.024L57.1577 19.024L57.1577 18.928ZM69.7165 13.216L69.7165 24L67.4925 24L67.4925 15.456L65.1245 16.912L64.1325 15.376L67.7165 13.216L69.7165 13.216Z" fill="white"/>
</g>
<defs>
<filter id="filter0_d_151_374" x="0" y="0" width="92" height="40" filterUnits="userSpaceOnUse" color-interpolation-filters="sRGB">
<feFlood flood-opacity="0" result="BackgroundImageFix"/>
<feColorMatrix in="SourceAlpha" type="matrix" values="0 0 0 0 0 0 0 0 0 0 0 0 0 0 0 0 0 0 127 0" result="hardAlpha"/>
<feOffset dy="3"/>
<feComposite in2="hardAlpha" operator="out"/>
<feColorMatrix type="matrix" values="0 0 0 0 0.462745 0 0 0 0 0.219608 0 0 0 0 0.286275 0 0 0 1 0"/>
<feBlend mode="normal" in2="BackgroundImageFix" result="effect1_dropShadow_151_374"/>
<feBlend mode="normal" in="SourceGraphic" in2="effect1_dropShadow_151_374" result="shape"/>
</filter>
</defs>
</svg>
